<?xml version="1.0" encoding="UTF-8" standalone="no"?>
<!DOCTYPE svg PUBLIC "-//W3C//DTD SVG 1.1//EN" "http://www.w3.org/Graphics/SVG/1.1/DTD/svg11.dtd">
<svg width="100%" height="100%" viewBox="0 0 10 9" version="1.1" xmlns="http://www.w3.org/2000/svg" xmlns:xlink="http://www.w3.org/1999/xlink" xml:space="preserve" xmlns:serif="http://www.serif.com/" style="fill-rule:evenodd;clip-rule:evenodd;stroke-linejoin:round;stroke-miterlimit:2;">
    <path d="M0,1.176C0,0.725 0.358,0.358 0.8,0.358L9.1,0.358C9.542,0.358 9.9,0.725 9.9,1.176C9.9,1.628 9.542,1.994 9.1,1.994L0.8,1.994C0.358,1.994 0,1.628 0,1.176ZM9.1,3.835L0.8,3.835C0.358,3.835 0,4.202 0,4.653C0,5.105 0.358,5.472 0.8,5.472L9.1,5.472C9.542,5.472 9.9,5.105 9.9,4.653C9.9,4.202 9.542,3.835 9.1,3.835ZM9.1,7.313L0.8,7.313C0.358,7.313 0,7.679 0,8.131C0,8.582 0.358,8.949 0.8,8.949L9.1,8.949C9.542,8.949 9.9,8.582 9.9,8.131C9.9,7.679 9.542,7.313 9.1,7.313Z" style="fill:rgb(0,103,246);fill-rule:nonzero;"/>
</svg>
