<?xml version="1.0" encoding="UTF-8" standalone="no"?><!DOCTYPE svg PUBLIC "-//W3C//DTD SVG 1.1//EN" "http://www.w3.org/Graphics/SVG/1.1/DTD/svg11.dtd"><svg width="100%" height="100%" viewBox="0 0 42 38" version="1.1" xmlns="http://www.w3.org/2000/svg" xmlns:xlink="http://www.w3.org/1999/xlink" xml:space="preserve" xmlns:serif="http://www.serif.com/" style="fill-rule:evenodd;clip-rule:evenodd;stroke-linejoin:round;stroke-miterlimit:2;"><path d="M0,4.901c0,-1.882 1.493,-3.41 3.333,-3.41l34.584,0c1.84,0 3.333,1.528 3.333,3.41c0,1.881 -1.493,3.409 -3.333,3.409l-34.584,-0c-1.84,-0 -3.333,-1.528 -3.333,-3.409Zm37.917,11.079l-34.584,0c-1.84,0 -3.333,1.527 -3.333,3.409c0,1.882 1.493,3.409 3.333,3.409l34.584,0c1.84,0 3.333,-1.527 3.333,-3.409c0,-1.882 -1.492,-3.409 -3.333,-3.409Zm-0,14.489l-34.584,-0c-1.84,-0 -3.333,1.527 -3.333,3.409c0,1.882 1.493,3.409 3.333,3.409l34.584,-0c1.84,-0 3.333,-1.527 3.333,-3.409c0,-1.882 -1.492,-3.409 -3.333,-3.409Z" style="fill:#212429;fill-rule:nonzero;"/></svg>