<?xml version="1.0" encoding="UTF-8" standalone="no"?>
<!DOCTYPE svg PUBLIC "-//W3C//DTD SVG 1.1//EN" "http://www.w3.org/Graphics/SVG/1.1/DTD/svg11.dtd">
<svg width="100%" height="100%" viewBox="0 0 10 10" version="1.1" xmlns="http://www.w3.org/2000/svg" xmlns:xlink="http://www.w3.org/1999/xlink" xml:space="preserve" xmlns:serif="http://www.serif.com/" style="fill-rule:evenodd;clip-rule:evenodd;stroke-linejoin:round;stroke-miterlimit:2;">
    <path d="M7.949,5.898C7.253,5.898 6.636,6.248 6.266,6.78L3.997,5.646C4.065,5.443 4.102,5.226 4.102,5C4.102,4.774 4.065,4.557 3.997,4.354L6.266,3.22C6.636,3.752 7.253,4.102 7.949,4.102C9.08,4.102 10,3.182 10,2.051C10,0.92 9.08,0 7.949,0C6.818,0 5.898,0.92 5.898,2.051C5.898,2.276 5.935,2.493 6.003,2.697L3.734,3.831C3.364,3.298 2.747,2.949 2.051,2.949C0.92,2.949 0,3.869 0,5C0,6.131 0.92,7.051 2.051,7.051C2.747,7.051 3.364,6.702 3.734,6.169L6.003,7.303C5.935,7.507 5.898,7.724 5.898,7.949C5.898,9.08 6.818,10 7.949,10C9.08,10 10,9.08 10,7.949C10,6.818 9.08,5.898 7.949,5.898ZM7.949,0.586C8.757,0.586 9.414,1.243 9.414,2.051C9.414,2.858 8.757,3.516 7.949,3.516C7.142,3.516 6.484,2.858 6.484,2.051C6.484,1.243 7.142,0.586 7.949,0.586ZM2.051,6.465C1.243,6.465 0.586,5.808 0.586,5C0.586,4.192 1.243,3.535 2.051,3.535C2.858,3.535 3.516,4.192 3.516,5C3.516,5.808 2.858,6.465 2.051,6.465ZM7.949,9.414C7.142,9.414 6.484,8.757 6.484,7.949C6.484,7.142 7.142,6.484 7.949,6.484C8.757,6.484 9.414,7.142 9.414,7.949C9.414,8.757 8.757,9.414 7.949,9.414Z" style="fill:rgb(33,36,41);fill-rule:nonzero;"/>
</svg>
